<?xml version="1.0" encoding="UTF-8" standalone="no"?>
<svg xmlns="http://www.w3.org/2000/svg" xmlns:xlink="http://www.w3.org/1999/xlink" width="66px" height="66px" viewBox="0 0 66 66" version="1.1">
  <!-- Generator: Sketch 47.1 (45422) - http://www.bohemiancoding.com/sketch -->
  <title>Combined Shape Copy</title>
  <desc>Created with Sketch.</desc>
  <defs>
    <linearGradient x1="100%" y1="50%" x2="0%" y2="50%" id="linearGradient-1">
      <stop stop-color="#00E2FF" offset="0%"></stop>
      <stop stop-color="#00FF00" offset="100%"></stop>
    </linearGradient>
  </defs>
  <g id="What-ever-the-Q" stroke="none" stroke-width="1" fill="none" fill-rule="evenodd">
    <g id="WhatEverTheQ_1017_03" transform="translate(-52.000000, -1111.000000)" fill="url(#linearGradient-1)">
      <path d="M107.496326,1163.14129 L85.0875461,1176.1056 C84.0565238,1176.70187 82.7922406,1177 81.5284068,1177 C80.2641235,1177 79.0002898,1176.70187 77.968818,1176.1056 L55.5600382,1163.14129 C53.4975442,1161.94831 52,1159.35067 52,1156.96425 L52,1139.99496 L58.0391659,1143.59553 L58.0391659,1156.96425 C58.054447,1157.21915 58.3663605,1157.76048 58.5861381,1157.90594 L80.9881763,1170.86574 C81.2160439,1170.97968 81.8403202,1170.97968 82.0749295,1170.86169 L104.476968,1157.90144 C104.690004,1157.76048 105.001917,1157.21915 105.016749,1156.95615 L105.016749,1131.03609 C105.001917,1130.78119 104.690004,1130.23941 104.470675,1130.09485 L82.0686373,1117.13459 C81.9553776,1117.07785 81.7445889,1117.04948 81.5324518,1117.04948 C81.3171685,1117.04948 81.0996381,1117.0792 80.9809852,1117.13865 L58.578947,1130.09845 C58.3663605,1130.23941 58.054447,1130.78119 58.0387165,1131.04419 L58.0391659,1132.34346 C58.054447,1132.59746 58.3654616,1133.13653 58.5843403,1133.28064 L99.445453,1156.88994 L93.3968487,1160.38243 L55.5649821,1138.5205 C53.4993419,1137.32932 52,1134.73168 52,1132.34346 L52,1131.03609 C52,1128.65012 53.4975442,1126.05203 55.5600382,1124.85905 L77.968818,1111.89474 C80.0313121,1110.70175 83.025052,1110.70175 85.0875461,1111.89474 L107.496326,1124.85905 C109.55882,1126.05203 111.055465,1128.65012 111.055465,1131.03609 L111.055465,1156.96425 C111.055465,1159.35022 109.55882,1161.94831 107.496326,1163.14129 Z M118,1169.32571 L118,1176.11478 L104.632666,1168.30296 L110.68082,1164.81003 L118,1169.32571 Z" id="Combined-Shape-Copy"></path>
    </g>
  </g>
</svg>
